<?xml version="1.0" encoding="iso-8859-1"?>
<!-- Generator: Adobe Illustrator 19.0.0, SVG Export Plug-In . SVG Version: 6.00 Build 0)  -->
<svg version="1.1" id="Layer_1" xmlns="http://www.w3.org/2000/svg" xmlns:xlink="http://www.w3.org/1999/xlink" x="0px" y="0px"
	 viewBox="0 0 56 56" style="enable-background:new 0 0 56 56;" xml:space="preserve">
<g>
	<path style="fill:#FFFFFF;" d="M43,6H13c-1.302,0-2.402,0-2.816,2H39c2.757,0,5,1.951,5,4.708v36.816c1.161-0.414,2-1.514,2-2.816
		v-38C46,7.053,44.654,6,43,6z"/>
	<path style="fill:#FFFFFF;" d="M47,2H17c-1.302,0-2.402,0-2.816,2H43c2.757,0,5,1.951,5,4.708v36.816c1.161-0.414,2-1.514,2-2.816
		v-38C50,3.053,48.654,2,47,2z"/>
	<path style="fill:#F8CF26;" d="M42,13c0-1.657-1.343-3-3-3H9c-1.657,0-3,1.343-3,3v38c0,1.657,1.343,3,3,3h30c1.657,0,3-1.343,3-3
		V13z M21.707,14.414l-5,5c-0.195,0.195-0.451,0.293-0.707,0.293s-0.512-0.098-0.707-0.293l-2-2L14.707,16L16,17.293L20.293,13
		L21.707,14.414z M22,50.708C22,51.26,21.552,52,21,52H11c-0.552,0-1-0.74-1-1.292v-10C10,40.155,10.448,40,11,40h7v2h-6v8h8v-4h2
		V50.708z M20.293,41l1.414,1.414l-5,5c-0.195,0.195-0.451,0.293-0.707,0.293s-0.512-0.098-0.707-0.293l-2-2L14.707,44L16,45.293
		L20.293,41z M22,36.708C22,37.26,21.552,38,21,38H11c-0.552,0-1-0.74-1-1.292v-10C10,26.155,10.448,26,11,26h7v2h-6v8h8v-4h2
		V36.708z M20.293,27l1.414,1.414l-5,5c-0.195,0.195-0.451,0.293-0.707,0.293s-0.512-0.098-0.707-0.293l-2-2L14.707,30L16,31.293
		L20.293,27z M22,22.708C22,23.26,21.552,24,21,24H11c-0.552,0-1-0.74-1-1.292v-10C10,12.155,10.448,12,11,12h7v2h-6v8h8v-4h2
		V22.708z M38,51H24v-2h14V51z M38,47H24v-2h14V47z M38,43H24v-2h14V43z M38,37H24v-2h14V37z M38,33H24v-2h14V33z M38,29H24v-2h14
		V29z M38,23H24v-2h14V23z M38,19H24v-2h14V19z M38,15H24v-2h14V15z"/>
	<g>
		<path d="M47,0H17c-2.446,0-4.479,1.622-4.908,3.946c-2.028,0.375-3.625,1.899-4,3.927C5.768,8.302,4,10.262,4,12.708v38
			C4,53.464,6.243,56,9,56h30c2.446,0,4.479-1.914,4.908-4.238c2.028-0.375,3.625-2.045,4-4.073C50.232,47.259,52,45.153,52,42.708
			v-38C52,1.951,49.757,0,47,0z M42,51c0,1.657-1.343,3-3,3H9c-1.657,0-3-1.343-3-3V13c0-1.657,1.343-3,3-3h30c1.657,0,3,1.343,3,3
			V51z M46,46.708c0,1.302-0.839,2.402-2,2.816V12.708C44,9.951,41.757,8,39,8H10.184C10.598,6,11.698,6,13,6h30
			c1.654,0,3,1.053,3,2.708V46.708z M50,42.708c0,1.302-0.839,2.402-2,2.816V8.708C48,5.951,45.757,4,43,4H14.184
			C14.598,2,15.698,2,17,2h30c1.654,0,3,1.053,3,2.708V42.708z"/>
		<path d="M14.707,16l-1.414,1.414l2,2c0.195,0.195,0.451,0.293,0.707,0.293s0.512-0.098,0.707-0.293l5-5L20.293,13L16,17.293
			L14.707,16z"/>
		<path d="M20,22h-8v-8h6v-2h-7c-0.552,0-1,0.155-1,0.708v10C10,23.26,10.448,24,11,24h10c0.552,0,1-0.74,1-1.292V18h-2V22z"/>
		<path d="M14.707,30l-1.414,1.414l2,2c0.195,0.195,0.451,0.293,0.707,0.293s0.512-0.098,0.707-0.293l5-5L20.293,27L16,31.293
			L14.707,30z"/>
		<path d="M20,36h-8v-8h6v-2h-7c-0.552,0-1,0.155-1,0.708v10C10,37.26,10.448,38,11,38h10c0.552,0,1-0.74,1-1.292V32h-2V36z"/>
		<path d="M14.707,44l-1.414,1.414l2,2c0.195,0.195,0.451,0.293,0.707,0.293s0.512-0.098,0.707-0.293l5-5L20.293,41L16,45.293
			L14.707,44z"/>
		<path d="M20,50h-8v-8h6v-2h-7c-0.552,0-1,0.155-1,0.708v10C10,51.26,10.448,52,11,52h10c0.552,0,1-0.74,1-1.292V46h-2V50z"/>
		<rect x="24" y="13" width="14" height="2"/>
		<rect x="24" y="17" width="14" height="2"/>
		<rect x="24" y="21" width="14" height="2"/>
		<rect x="24" y="27" width="14" height="2"/>
		<rect x="24" y="31" width="14" height="2"/>
		<rect x="24" y="35" width="14" height="2"/>
		<rect x="24" y="41" width="14" height="2"/>
		<rect x="24" y="45" width="14" height="2"/>
		<rect x="24" y="49" width="14" height="2"/>
	</g>
</g>
<g>
</g>
<g>
</g>
<g>
</g>
<g>
</g>
<g>
</g>
<g>
</g>
<g>
</g>
<g>
</g>
<g>
</g>
<g>
</g>
<g>
</g>
<g>
</g>
<g>
</g>
<g>
</g>
<g>
</g>
</svg>
